# xmcd
#
# Track frame offsets: 
#        150
#        20305
#        39772
#        54642
#
# Disc length: 1111 seconds
#
# Revision: 2
# Processed by: cddbd v1.5.1PL0 Copyright (c) Steve Scherf et al.
# Submitted via: ExactAudioCopy v0.90b4
#
DISCID=24045504
DTITLE=Biffy Clyro - Eradicate the Doubt Single
DYEAR=2003
DGENRE=Rock
TTITLE0=Eradicate the Doubt
TTITLE1=Convex, Concave (live)
TTITLE2=57 (live)
TTITLE3=Now the Action is On Fire! (live)
EXTD=
EXTT0=
EXTT1=
EXTT2=
EXTT3=
PLAYORDER=
